# xmcd CD database file
#
# Track frame offsets:
#	150
#	78431
#	102299
#	133196
#
# Disc length: 2366 seconds
#
# Revision: 0
# Processed by: cddbd v1.5.2PL0 Copyright (c) Steve Scherf et al.
# Submitted via: CDex 1.51
#
DISCID=2d093c04
DTITLE=Linus and Økland - Van Heertum - Felt like old folk
DYEAR=2016
DGENRE=Jazz
TTITLE0=A
TTITLE1=B
TTITLE2=Old folk
TTITLE3=Felt
EXTD=YEAR: 2016
EXTT0=
EXTT1=
EXTT2=
EXTT3=
PLAYORDER=
